<svg height="512" viewBox="0 0 512 512" width="512" xmlns="http://www.w3.org/2000/svg"><g id="Flat"><path d="m296 176v40l-40 56-40-56v-40z" fill="#fec9a3"/><path d="m296 176v23.19a56 56 0 0 1 -80 0v-23.19z" fill="#feb784"/><path d="m200 104h8a0 0 0 0 1 0 0v48a0 0 0 0 1 0 0h-8a24 24 0 0 1 -24-24 24 24 0 0 1 24-24z" fill="#f7ad7c"/><path d="m328 104h8a0 0 0 0 1 0 0v48a0 0 0 0 1 0 0h-8a24 24 0 0 1 -24-24 24 24 0 0 1 24-24z" fill="#f7ad7c" transform="matrix(-1 0 0 -1 640 256)"/><path d="m312 88v56a56 56 0 0 1 -56 56 56.885 56.885 0 0 1 -7.43-.49 56 56 0 0 1 -48.57-55.51v-56z" fill="#fec9a3"/><path d="m312 88v56a56 56 0 0 1 -56 56 56.885 56.885 0 0 1 -7.43-.49 82.292 82.292 0 0 0 28.12-62.04v-36.66a83.247 83.247 0 0 0 -.99-12.81z" fill="#fec093"/><path d="m320 56v32h-128v-32a32 32 0 0 1 32-32h64a31.986 31.986 0 0 1 32 32z" fill="#f35244"/><path d="m320 88h-128a19.464 19.464 0 0 0 19.558 28.049l18.722-2.08c11.777-1.309 39.663-1.309 51.44 0l18.722 2.08a19.464 19.464 0 0 0 19.558-28.049z" fill="#92563a"/><path d="m320 56v32h-107.6a412.748 412.748 0 0 0 95.06-57.41 31.975 31.975 0 0 1 12.54 25.41z" fill="#e84d40"/><path d="m224 56h64v32h-64z" fill="#fc685b"/><path d="m440 312-64 16-16-56v216h-208v-216l-16 56-64-16 9.27-33.97a73.308 73.308 0 0 1 70.73-54.03h48l16-8 40 56 40-56 16 8h48a73.284 73.284 0 0 1 70.73 54.03z" fill="#f35244"/><path d="m440 312-64 16-16-56v216h-208v-92.58c91.51-26.48 176.11-77.83 234.29-166.55a73.3 73.3 0 0 1 44.44 49.16z" fill="#e84d40"/><path d="m216 216-16 8v56l56-8z" fill="#92563a"/><path d="m296 216 16 8v56l-56-8z" fill="#92563a"/><path d="m136 328-19.46 58.39-12.54 37.61v64h-7.86a56.13 56.13 0 0 1 -56.14-56.14 55.8 55.8 0 0 1 2.16-15.42l29.84-104.44z" fill="#feb784"/><path d="m472 431.86a56.134 56.134 0 0 1 -56.14 56.14h-7.86v-64l-12.54-37.61-19.46-58.39 64-16 29.84 104.44a55.8 55.8 0 0 1 2.16 15.42z" fill="#feb784"/><path d="m136 256h240v232h-240z" fill="#fa9f0c"/><path d="m376 488h-240v-43l195-101h45z" fill="#f5980c"/><path d="m136 256h240v88h-240z" fill="#ffb531"/><path d="m232 256h48v88h-48z" fill="#f98500"/><path d="m232 344h48v48h-48z" fill="#f57707"/><g fill="#fec9a3"><path d="m192 436.87v38.26a12.867 12.867 0 0 1 -12.87 12.87h-82.99a56.13 56.13 0 0 1 -56.14-56.14 57.358 57.358 0 0 1 .55-7.86h63.45l5.48-27.39a15.69 15.69 0 0 1 30.77 6.16l-4.25 21.23h43.13a12.867 12.867 0 0 1 12.87 12.87z"/><path d="m472 431.86a56.134 56.134 0 0 1 -56.14 56.14h-82.99a12.867 12.867 0 0 1 -12.87-12.87v-38.26a12.867 12.867 0 0 1 12.87-12.87h43.13l-4.25-21.23a15.669 15.669 0 0 1 15.39-18.77 15.688 15.688 0 0 1 15.38 12.61l5.48 27.39h63.45a57.358 57.358 0 0 1 .55 7.86z"/></g></g></svg>