<svg width="282" height="365" viewBox="0 0 282 365" fill="none" xmlns="http://www.w3.org/2000/svg">
<path d="M106.363 26.6682C70.5309 40.8539 47.0126 75.8177 47 114.127C47 128.035 58.2464 139.381 72.2611 139.381C86.253 139.381 97.5222 128.056 97.5222 114.127C97.5559 90.1668 116.833 70.6596 140.971 70.6419C164.659 70.6419 184.479 90.6191 184.479 114.085C184.47 132.266 173.515 148.215 156.591 154.732C144.449 159.389 134.176 167.414 126.883 177.957C113.547 197.218 115.743 213.469 115.743 238.713C115.743 240.716 115.979 242.713 116.442 244.658C117.132 247.504 119.659 249.491 122.58 249.491C126.701 249.491 129.678 245.634 128.727 241.694C128.233 239.647 128.365 241.091 128.365 213.796C128.399 192.744 141.248 174.193 161.12 166.521C198.629 152.148 209.666 103.67 180.563 74.5661C145.12 39.1483 84.8369 64.3855 84.8925 114.126C84.8756 121.073 79.2171 126.741 72.2619 126.757C65.3068 126.74 59.6398 121.073 59.6314 114.126C59.6137 68.5927 97.8699 29.8175 146.167 32.907C188.068 35.5138 222.37 70.6891 222.37 114.134C222.362 148.087 201.875 177.913 170.189 190.107C165.305 191.967 161.155 195.184 158.182 199.403C152.457 207.57 153.635 212.312 153.635 238.711C153.618 245.658 147.951 251.325 141.004 251.334C137.519 251.334 134.689 254.171 134.689 257.65C134.689 270.912 166.236 262.833 166.265 238.711V213.794C166.281 208.49 169.524 203.927 174.719 201.898C211.435 187.789 235.034 152.866 235 114.136C235 48.1615 167.985 2.1992 106.363 26.6682Z" fill="black"/>
<path d="M164.78 299.534C153.684 281.466 128.085 281.841 116.788 298.552C104.383 316.91 117.395 342 140.72 342C162.211 342 176.53 318.668 164.78 299.534ZM137.09 327.568C131.57 326.23 127.625 322.196 126.536 316.776C123.62 301.306 144.419 293.459 152.589 306.764C159.213 317.55 149.528 330.584 137.09 327.568Z" fill="black"/>
</svg>
